# 3ds Max Wavefront OBJ Exporter v0.97b - (c)2007 guruware
# File Created: 03.04.2014 13:45:09

mtllib pyramid.mtl

#
# object Pyramid001
#

v  -10.5402 46.9247 0.3058
v  -37.3428 0.0050 27.8447
v  16.2624 0.0050 27.8447
v  16.2624 0.0050 -27.2331
v  -37.3428 0.0050 -27.2331
v  -10.5402 0.0050 0.3058
# 6 vertices

vn 0.0000 0.5062 0.8624
vn 0.8683 0.4960 -0.0000
vn 0.0000 0.5062 -0.8624
vn -0.8683 0.4960 -0.0000
vn 0.0000 -1.0000 -0.0000
# 5 vertex normals

vt 0.5000 1.0000 0.0000
vt 0.0000 0.0000 0.0000
vt 1.0000 0.0000 0.0000
vt 0.0134 0.0000 0.0000
vt 1.0134 0.0000 0.0000
vt 0.0000 1.0000 0.0000
vt 0.5000 0.5000 0.0000
vt 1.0000 1.0000 0.0000
# 8 texture coords

g Pyramid001
usemtl wire_006135058
f 1/1/1 2/2/1 3/3/1 
f 1/1/2 3/4/2 4/5/2 
f 1/1/3 4/2/3 5/3/3 
f 1/1/4 5/4/4 2/5/4 
f 2/6/5 6/7/5 3/8/5 
f 3/8/5 6/7/5 4/3/5 
f 4/3/5 6/7/5 5/2/5 
f 5/2/5 6/7/5 2/6/5 
# 8 faces

