# 3ds Max Wavefront OBJ Exporter v0.97b - (c)2007 guruware
# File Created: 21.04.2014 14:58:24

mtllib tank_turret.mtl

#
# object Box001
#

v  -2.2267 -1.5899 3.7811
v  -2.2267 -1.5899 -2.2392
v  2.2267 -1.5899 -2.2392
v  2.2267 -1.5899 3.7811
v  -2.2267 1.6129 1.2270
v  2.2267 1.6129 1.2270
v  2.2267 1.6129 -1.2690
v  -2.2267 1.6129 -1.2690
# 8 vertices

vn 0.0000 -1.0000 -0.0000
vn 0.0000 1.0000 -0.0000
vn 0.0000 0.6235 0.7818
vn 1.0000 0.0000 -0.0000
vn 0.0000 0.2899 -0.9571
vn -1.0000 0.0000 -0.0000
# 6 vertex normals

vt 1.0000 0.0000 0.0000
vt 1.0000 1.0000 0.0000
vt 0.0000 1.0000 0.0000
vt 0.0000 0.0000 0.0000
# 4 texture coords

g Box001
usemtl wire_088199225
s 2
f 1/1/1 2/2/1 3/3/1 
f 3/3/1 4/4/1 1/1/1 
s 4
f 5/4/2 6/1/2 7/2/2 
f 7/2/2 8/3/2 5/4/2 
s 8
f 1/4/3 4/1/3 6/2/3 
f 6/2/3 5/3/3 1/4/3 
s 16
f 4/4/4 3/1/4 7/2/4 
f 7/2/4 6/3/4 4/4/4 
s 32
f 3/4/5 2/1/5 8/2/5 
f 8/2/5 7/3/5 3/4/5 
s 64
f 2/4/6 1/1/6 5/2/6 
f 5/2/6 8/3/6 2/4/6 
# 12 faces

